name Walk3.mot
datacolumns 19
datarows 25
range 1.17600000 1.20000000
endheader

                time	   L_ground_force_vx	   L_ground_force_vy	   L_ground_force_vz	   L_ground_force_px	   L_ground_force_py	   L_ground_force_pz	   R_ground_force_vx	   R_ground_force_vy	   R_ground_force_vz	   R_ground_force_px	   R_ground_force_py	   R_ground_force_pz	   L_ground_torque_x	   L_ground_torque_y	   L_ground_torque_z	   R_ground_torque_x	   R_ground_torque_y	   R_ground_torque_z	
          1.17600000	         -9.19223774	        167.35924142	        -30.03702548	         -0.00609522	          0.00000000	         -0.00237056	         -0.00000000	          0.00000001	          0.00000000	          0.00000000	          0.00000000	          0.00000000	          0.00000000	          0.07374298	          0.00000000	          0.00000000	          0.00000000	          0.00000000	
          1.17700000	        -10.54900948	        180.87781308	        -31.89635473	         -0.02269197	          0.00000000	         -0.00191533	         -0.00000000	          0.00000001	          0.00000000	          0.00000000	          0.00000000	          0.00000000	          0.00000000	          0.07945502	          0.00000000	          0.00000000	          0.00000000	          0.00000000	
          1.17800000	        -11.98195439	        194.69162229	        -33.79369956	         -0.03923907	          0.00000000	         -0.00146623	         -0.00000000	          0.00000001	          0.00000000	          0.00000000	          0.00000000	          0.00000000	          0.00000000	          0.08572959	          0.00000000	          0.00000000	          0.00000000	          0.00000000	
          1.17900000	        -13.49232578	        208.77494537	        -35.72483364	         -0.05568475	          0.00000000	         -0.00102544	         -0.00000000	          0.00000001	          0.00000000	          0.00000000	          0.00000000	          0.00000000	          0.00000000	          0.09258721	          0.00000000	          0.00000000	          0.00000000	          0.00000000	
          1.18000000	        -15.08119540	        223.09908383	        -37.68500034	         -0.07197824	          0.00000000	         -0.00059492	         -0.00000000	          0.00000001	          0.00000000	          0.00000000	          0.00000000	          0.00000000	          0.00000000	          0.10004685	          0.00000000	          0.00000000	          0.00000000	          0.00000000	
          1.18100000	        -16.74943762	        237.63225852	        -39.66887999	         -0.08807152	          0.00000000	         -0.00017625	         -0.00000000	          0.00000001	          0.00000000	          0.00000000	          0.00000000	          0.00000000	          0.00000000	          0.10812562	          0.00000000	          0.00000000	          0.00000000	          0.00000000	
          1.18200000	        -18.49771096	        252.33955211	        -41.67055989	         -0.10392052	          0.00000000	          0.00022942	         -0.00000000	          0.00000001	          0.00000000	          0.00000000	          0.00000000	          0.00000000	          0.00000000	          0.11683812	          0.00000000	          0.00000000	          0.00000000	          0.00000000	
          1.18300000	        -20.32643507	        267.18291985	        -43.68351067	         -0.11948537	          0.00000000	          0.00062130	         -0.00000000	          0.00000001	          0.00000000	          0.00000000	          0.00000000	          0.00000000	          0.00000000	          0.12619610	          0.00000000	          0.00000000	          0.00000000	          0.00000000	
          1.18400000	        -22.23576580	        282.12133069	        -45.70057178	         -0.13473038	          0.00000000	          0.00099878	         -0.00000000	          0.00000001	          0.00000000	          0.00000000	          0.00000000	          0.00000000	          0.00000000	          0.13620834	          0.00000000	          0.00000000	          0.00000000	          0.00000000	
          1.18500000	        -24.22557002	        297.11110784	        -47.71395052	         -0.14962393	          0.00000000	          0.00136144	         -0.00000000	          0.00000001	          0.00000000	          0.00000000	          0.00000000	          0.00000000	          0.00000000	          0.14688108	          0.00000000	          0.00000000	          0.00000000	          0.00000000	
          1.18600000	        -26.29539947	        312.10652268	        -49.71524004	         -0.16413830	          0.00000000	          0.00170889	         -0.00000000	          0.00000001	          0.00000000	          0.00000000	          0.00000000	          0.00000000	          0.00000000	          0.15821882	          0.00000000	          0.00000000	          0.00000000	          0.00000000	
          1.18700000	        -28.44446143	        327.06066105	        -51.69546205	         -0.17824951	          0.00000000	          0.00204081	         -0.00000000	          0.00000001	          0.00000000	          0.00000000	          0.00000000	          0.00000000	          0.00000000	          0.17022514	          0.00000000	          0.00000000	          0.00000000	          0.00000000	
          1.18800000	        -30.67158311	        341.92652254	        -53.64513898	         -0.19193712	          0.00000000	          0.00235691	         -0.00000000	          0.00000001	          0.00000000	          0.00000000	          0.00000000	          0.00000000	          0.00000000	          0.18290340	          0.00000000	          0.00000000	          0.00000000	          0.00000000	
          1.18900000	        -32.97516860	        356.65824881	        -55.55439791	         -0.20518401	          0.00000000	          0.00265692	         -0.00000000	          0.00000001	          0.00000000	          0.00000000	          0.00000000	          0.00000000	          0.00000000	          0.19625702	          0.00000000	          0.00000000	          0.00000000	          0.00000000	
          1.19000000	        -35.35315066	        371.21233250	        -57.41310489	         -0.21797617	          0.00000000	          0.00294058	         -0.00000000	          0.00000001	          0.00000000	          0.00000000	          0.00000000	          0.00000000	          0.00000000	          0.21028942	          0.00000000	          0.00000000	          0.00000000	          0.00000000	
          1.19100000	        -37.80294289	        385.54865461	        -59.21102320	         -0.23030252	          0.00000000	          0.00320764	         -0.00000000	          0.00000001	          0.00000000	          0.00000000	          0.00000000	          0.00000000	          0.00000000	          0.22500363	          0.00000000	          0.00000000	          0.00000000	          0.00000000	
          1.19200000	        -40.32139997	        399.63123667	        -60.93798563	         -0.24215465	          0.00000000	          0.00345788	         -0.00000000	          0.00000001	          0.00000000	          0.00000000	          0.00000000	          0.00000000	          0.00000000	          0.24040145	          0.00000000	          0.00000000	          0.00000000	          0.00000000	
          1.19300000	        -42.90479278	        413.42865661	        -62.58406884	         -0.25352669	          0.00000000	          0.00369107	         -0.00000000	          0.00000001	          0.00000000	          0.00000000	          0.00000000	          0.00000000	          0.00000000	          0.25648234	          0.00000000	          0.00000000	          0.00000000	          0.00000000	
          1.19400000	        -45.54880256	        426.91413992	        -64.13975889	         -0.26441510	          0.00000000	          0.00390703	         -0.00000000	          0.00000001	          0.00000000	          0.00000000	          0.00000000	          0.00000000	          0.00000000	          0.27324214	          0.00000000	          0.00000000	          0.00000000	          0.00000000	
          1.19500000	        -48.24853474	        440.06538462	        -65.59609853	         -0.27481846	          0.00000000	          0.00410557	         -0.00000000	          0.00000001	          0.00000000	          0.00000000	          0.00000000	          0.00000000	          0.00000000	          0.29067166	          0.00000000	          0.00000000	          0.00000000	          0.00000000	
          1.19600000	        -50.99855012	        452.86420271	        -66.94481087	         -0.28473733	          0.00000000	          0.00428656	         -0.00000000	          0.00000001	          0.00000000	          0.00000000	          0.00000000	          0.00000000	          0.00000000	          0.30875524	          0.00000000	          0.00000000	          0.00000000	          0.00000000	
          1.19700000	        -53.79290951	        465.29606546	        -68.17839701	         -0.29417407	          0.00000000	          0.00444988	         -0.00000000	          0.00000001	          0.00000000	          0.00000000	          0.00000000	          0.00000000	          0.00000000	          0.32746944	          0.00000000	          0.00000000	          0.00000000	          0.00000000	
          1.19800000	        -56.62522802	        477.34962936	        -69.29020861	         -0.30313264	          0.00000000	          0.00459547	         -0.00000000	          0.00000001	          0.00000000	          0.00000000	          0.00000000	          0.00000000	          0.00000000	          0.34678193	          0.00000000	          0.00000000	          0.00000000	          0.00000000	
          1.19900000	        -59.48873584	        489.01629924	        -70.27449854	         -0.31161853	          0.00000000	          0.00472329	         -0.00000000	          0.00000001	          0.00000000	          0.00000000	          0.00000000	          0.00000000	          0.00000000	          0.36665065	          0.00000000	          0.00000000	          0.00000000	          0.00000000	
          1.20000000	        -62.37634385	        500.28986206	        -71.12645308	         -0.31963852	          0.00000000	          0.00483336	         -0.00000000	          0.00000001	         -0.00000000	          0.00000000	          0.00000000	          0.00000000	          0.00000000	          0.38702359	          0.00000000	          0.00000000	          0.00000000	          0.00000000	
